<?xml version="1.0" encoding="utf-8"?>
<!-- Generator: Adobe Illustrator 22.1.0, SVG Export Plug-In . SVG Version: 6.00 Build 0)  -->
<svg version="1.1" id="Layer_1" xmlns="http://www.w3.org/2000/svg" xmlns:xlink="http://www.w3.org/1999/xlink" x="0px" y="0px"
	 viewBox="0 0 463 305.2" style="enable-background:new 0 0 463 305.2;" xml:space="preserve" preserveAspectRatio="none">
<g>
	<rect x="193.8" y="32.7" transform="matrix(7.254274e-03 -1 1 7.254274e-03 192.134 265.8547)" width="72.3" height="7"/>
</g>
<g>
	<path d="M319,152.4c-9.1-3.6-18.4-6.7-27.7-10.2c-0.6-2.3-1.2-4.5-1.7-6.8c-0.5-2.1-0.9-4.2-1.3-6.3c-0.9-4.8-1.8-9.7-2.7-14.5
		c-0.1-0.4-0.3-0.7-0.6-1.3c-0.4,0.8-0.8,1.3-0.9,1.9c-2.1,6.6-4.1,13.1-6.2,19.7c-0.3,0.8-0.7,1.5-1,2.3c-0.8,0-1.4,0.1-2,0
		c-2.9-0.8-5.9-1.1-8.9-1.5c-1.7-0.2-3.4-0.3-5-1.2c-0.2-0.7-0.5-1.3-0.6-2c-0.8-2.7-1.5-5.5-2.3-8.2c-2-6.8-3.7-13.6-5-20.6
		c-0.3-1.4-0.7-2.8-1.5-4.6c-0.3,0.8-0.4,1.1-0.5,1.4c-1.1,3.6-2.3,7.2-3.4,10.8c-2.8,8.7-5.6,17.4-8.4,26.1c-1.9,6-3.6,12-5.5,18
		c-0.9,2.7-1.9,5.4-2.8,8c-0.2,0.5-0.4,1.1-1.1,1.4c-0.2-0.4-0.4-0.7-0.5-1c-2.4-6.8-3.9-13.9-5.8-20.9c-1-3.8-2-7.7-3-11.5
		c-0.4-1.4-0.7-2.8-1.1-4.3c-0.3-1.3-0.6-2.7-1-4c-1-3.7-2.1-7.5-3.1-11.2c-1.1-4.2-2.1-8.5-3.2-12.8c-0.1-0.3-0.3-0.6-0.6-1.1
		c-0.3,0.7-0.6,1-0.7,1.4c-0.6,2.1-1.3,4.3-1.9,6.4c-1.4,5.3-2.8,10.5-4.6,15.6c-1.1,3.3-2.1,6.6-3.2,9.8c-0.2,0.6-0.6,1.2-0.9,1.9
		c-5.3,0.5-10.6,1-16,1.5c-0.2-0.5-0.5-1-0.6-1.4c-0.7-2.7-1.4-5.5-2.2-8.2c-1.2-4.5-2.4-9-3.6-13.5c-0.1-0.4-0.4-0.7-0.7-1.4
		c-0.4,1.4-0.7,2.3-1,3.3c-1.8,7.5-3.6,14.9-5.3,22.4c-0.8,3.8-1.3,3.4-4,4.2c-2.6,0.8-5.3,1.4-8,2.2c-6.1,1.8-12.1,4.1-18.2,5.9
		c-8.7,2.6-17.3,5.2-26,7.8c-0.4,0.1-0.7,0.4-1.3,0.7c3.1,5.6,5.9,11.1,9.2,16.7c0.3-0.4,0.5-0.7,0.7-1c1.7-2.5,3.3-5,5-7.5
		c0.5-0.8,1.1-1.6,1.6-2.3c0.6-0.8,1.3-0.7,1.9,0.2c0.6,0.9,1.1,2,1.6,3c0.3,0.7,0.5,1.5,0.8,2.2c1.6,3,2.9,6.1,4,9.3
		c0.1,0.4,0.4,0.7,0.8,1.2c0.3-0.7,0.5-1.2,0.7-1.7c1.2-3.6,2.4-7.2,3.6-10.8c0.2-0.5,0.5-1,0.8-1.6c1.3,0.3,1.8,1.2,2.4,2
		c2.5,3.5,5,7,7.5,10.5c0.3,0.4,0.4,0.8,1,0.6c1.4-4.3,1.3-8.9,1.9-13.5c1,0,1.4,0.6,1.8,1.1c2.2,2.8,4.3,5.6,6.4,8.4
		c0.3,0.5,0.8,0.8,1.2,1.3c0.7-0.3,1.3-0.5,1.8-0.8c5.2-2.4,10.3-4.7,15.5-7.1c0.5-0.3,1.1-0.5,1.6-0.7c0.7-0.3,1-0.1,1.5,0.6
		c0.2,0.3,0.4,0.7,0.6,1.2c-3.6,5.1-7.6,9.8-11.4,14.4c-2.5,0.5-4.5-0.3-6.3-1.5c-0.6-0.4-1.4-0.7-2.1-1c-0.4-0.2-0.9-0.2-1.4-0.4
		c-0.5,1.2-1,2.2-1.4,3.2c-0.2,0.5-0.3,1.1-0.5,1.7c-0.2,0.7-0.3,1-0.7,2.1c-0.3,1.5-0.1,0.8-0.6,2.2c-0.1,0-0.2,0.1-0.4,0.2
		c-2.7-2.1-5.2-4.6-8.1-6.7c-0.3,1.3-0.4,2.2-0.7,3.5c0,0.4,0,1.5,0,1.9c0.1,2.7,0.1,2.3,0,4.4c0.1,0.7-0.1,1.2-0.5,2.3
		c-2.3-1.7-5.2-3.6-7.6-5.4c-4,2.9-8.1,5.5-11.7,8.7c-0.1,0.1,0,0.3,0,0.7c0.4,0.1,0.9,0.2,1.4,0.2c1.1,0,2.2,0,3.4,0
		c5.3,0,10.5,0.2,15.8-0.1c5.7-0.3,11.4-0.3,17.1-0.4c0.4,0,0.9-0.1,1.1,0.5c-0.7,1.4-1.9,2.6-3,3.8c-2.5,2.9-4.9,5.7-7.4,8.6
		c-0.5,0.6-1,1.1-1.1,2c0.7,0.6,1.3,0.2,2,0c1.9-0.7,3.8-1.6,5.8-2.2c4.9-1.6,18.7-10.4,19.4-10.6c0.2,0.8-1.3,14.2-0.8,17.9
		c0.4,2.6,0.5,5.1,0.8,7.7c0,0.3,0.2,0.6,0.3,1c0.4-0.3,0.6-0.4,0.7-0.6c2.1-2.6,4.3-5.2,6.4-7.8c1.9-2.3,3.7-4.8,5.6-7.1
		c0.4-0.5,1.7-3.6,2.2-4.1c0.4-0.4,1.4,26.6,2.5,30.1c0.3-0.2,0.5-0.2,0.5-0.3c1.5-2.6,9.8-13.1,10.2-13.2c0.6-0.1,4.4,8,6.2,13.7
		c1.2,3.8,2.6,7.5,3.9,11.2c0.2,0.7,0.4,1.5,0.5,2.3c0.1,0.3,0,0.7,0.4,0.8c0.6-0.1,0.5-0.6,0.7-1c1.1-2.9,2.3-5.8,3.4-8.7
		c1.4-3.8,3-7.5,4.2-11.4c1.1-3.3,3.9-6.6,4-6.8c1.1,0.2,8.8,11.1,9.1,11.7c0.4-0.9,1.7-11.9,2.2-14.7c0.6-3.1,2.9-10.1,3.2-10.7
		c1.5,1.5,5.7,7.8,6.8,9.3c1.2,1.6,2.3,3.3,3.6,4.7c1.3,1.3,1.8,3.3,3.7,4.4c0.2-0.5,0.4-0.9,0.4-1.3c0.3-2.2,0.5-4.5,0.8-6.7
		c0.6-4.5,1.2-16.9,1.3-17.1c0.3,0.1,15.9,9.4,17.3,10c0.4,0.2,4.4,2,6.1,2.8c0.6,0.3,1.3,0.6,2.3,0.3c-0.4-0.7-0.7-1.2-1-1.7
		c-1.2-1.7-11-14-11.2-14.5c13.1,0.9,26.8,2.3,39.7,3.2c0.1,0,0.2,0,0.2-0.1c0-0.1,0-0.2,0.1-0.4c-3.8-3.2-7.3-6.8-11.5-9.7
		c-2.1,1.4-4.1,2.8-6.1,4.2c-0.2,0.1-1.4,0.3-1.6,0.4c-0.6-0.6-0.4-1.2-0.7-2.1c-0.1-1.4-0.3-1.1-0.2-3.8c0-1.4,0-1.7,0.2-2.8
		c0.2-1,0.2-2-0.2-3.2c-0.8,0.5-1.5,0.9-2.1,1.4c-0.8,0.6-1.7,1.2-2.4,2c-1.3,1.3-2.8,1.9-4.5,2.2c-1-1.6-1.1-1.6-1.1-3.6
		c0-1.9-0.8-3.4-1.6-5.2c-1.3,0.3-2.3,0.9-3.4,1.3c-0.6,0.2-0.9,0.3-1.7,0.5c-1.8,0.3-3,0.4-4.5,0.7c-0.6-0.8-1.3-1.5-1.8-2.3
		c-2-2.7-4-5.4-5.9-8.2c-1-1.5-2-3-3-4.5c-0.1-0.2-0.2-0.5-0.3-0.7c0.5-0.6,0.8-1.4,1.9-1.5c6.2,3.3,12.5,6.8,19.1,9.8
		c1.5-1.8,2.8-3.6,4.3-5.2c1.5-1.7,2.8-3.7,4.9-5c0.5,1.8,0.4,3.4,0.5,5c0.2,2.4,0.4,4.8,0.6,7.2c0,0.4,0.3,0.7,0.6,1.2
		c1.7-1.5,3-3,4.2-4.7c1.9-2.5,3.8-4.9,5.7-7.3c0.3-0.4,0.7-0.6,1.1-0.9c0.9,0.7,1,1.6,1.2,2.4c1,3.7,1.9,7.5,2.9,11.2
		c0.1,0.4,0.2,0.8,0.9,0.8c1.3-2.7,2.5-5.5,4-8.2c1.5-2.7,2.5-5.6,4.3-8.4c3,4.1,4.9,8.7,8,12.8c2-3.2,3.9-6.1,5.6-9.2
		c1.4-2.4,3-4.6,4.2-7.2C337.4,159,328.1,156,319,152.4z M204.2,179.9c-0.2-0.1-0.5-0.3-0.6-0.4c-3.4-2.9-6.2-6.4-9.1-9.7
		c0.3-1.9,1-3.5,1.8-5c1.9-3.9,3.6-7.8,4.9-11.9c-0.4,3.5-0.3,8.2,0.4,13.3c0.7,5.8,2,10.9,3.5,14.3
		C204.7,180.3,204.4,180.1,204.2,179.9z M219.9,166.5c-0.7,1.7-1.6,3.2-1.9,5.1c-0.1,0.6-0.5,1.1-0.8,1.6c-1.6,2.3-3.1,4.8-5.1,6.8
		c-0.5,0.5-0.8,1.1-1.2,1.7c-0.1,0.1-0.2,0.3-0.3,0.4c1.1-3.5,1.3-9.9,0.3-17.1c-0.6-4.9-1.7-9.4-2.8-12.7c2.2,1.8,4.7,3.4,7,5
		c0.8,0.5,1.5,1.2,2.1,1.9c1.2,1.5,2.3,3.2,3.6,4.9C220.9,164.9,220.3,165.7,219.9,166.5z M241.7,172.1c-1.1-2.5-1.7-5.2-2.6-7.9
		c0.7-0.7,1.1-1.5,1.4-1.9c0.4-0.4,1.2-1,1.5-1.4c1.2-1.1,1.7-1.5,2.5-2.2c1-0.8,1.8-1.6,2.9-2.3c2.1-1.3,4.1-2.6,6.2-3.9
		c-1.7,3.2-3.4,8-4.7,13.4c-1.4,6-1.9,11.5-1.6,15.3C245.2,178.3,243.1,175.4,241.7,172.1z M264.6,172.7c-2.5,2.4-4.9,4.8-7.4,7.2
		c-0.9,0.9-1.9,1.7-3.2,2c-0.2,0.1-0.4,0.2-0.6,0.3c1.8-3.2,3.7-8.3,5-14.1c1.1-4.6,1.6-8.9,1.7-12.3c0.7,2.2,1.6,4.4,2.4,6.6
		c1.1,3,2.1,6,3.1,8.9C265.1,171.9,264.9,172.3,264.6,172.7z"/>
</g>
<g>
	<rect x="224.2" y="275.5" width="7" height="29.7"/>
</g>
<g>
	<rect x="193.6" y="274.5" transform="matrix(0.452 -0.892 0.892 0.452 -135.0824 336.2002)" width="25" height="7"/>
</g>
<g>
	<rect x="181.9" y="258.4" transform="matrix(0.7303 -0.6831 0.6831 0.7303 -127.3619 201.2137)" width="18.6" height="7"/>
</g>
<g>
	<rect x="245.1" y="265.5" transform="matrix(0.892 -0.4521 0.4521 0.892 -98.8454 142.3974)" width="7" height="25"/>
</g>
<g>
	<rect x="259.9" y="252.7" transform="matrix(0.6832 -0.7303 0.7303 0.6832 -107.734 275.2858)" width="7" height="18.3"/>
</g>
<g>
	<rect x="233.2" y="47.9" transform="matrix(0.207 -0.9784 0.9784 0.207 154.3525 293.1561)" width="49.6" height="7"/>
</g>
<g>
	<rect x="261.2" y="60.7" transform="matrix(0.4966 -0.868 0.868 0.4966 86.1215 276.9832)" width="41.3" height="7"/>
</g>
<g>
	<rect x="283.1" y="76.4" transform="matrix(0.6602 -0.7511 0.7511 0.6602 42.2308 253.0611)" width="35.4" height="7"/>
</g>
<g>
	<rect x="300.3" y="95.6" transform="matrix(0.7337 -0.6795 0.6795 0.7337 16.5415 240.4812)" width="29.5" height="7"/>
</g>
<g>
	<rect x="314.6" y="116.9" transform="matrix(0.8954 -0.4452 0.4452 0.8954 -19.4908 157.91)" width="23.6" height="7"/>
</g>
<g>
	<rect x="197" y="26.6" transform="matrix(0.9783 -0.207 0.207 0.9783 -6.2908 42.6023)" width="7" height="49.6"/>
</g>
<g>
	<rect x="173.1" y="43.6" transform="matrix(0.868 -0.4966 0.4966 0.868 -8.5856 96.2021)" width="7" height="41.3"/>
</g>
<g>
	<rect x="154.2" y="62.2" transform="matrix(0.7511 -0.6602 0.6602 0.7511 -13.4708 123.9881)" width="7" height="35.4"/>
</g>
<g>
	<rect x="139.9" y="84.4" transform="matrix(0.6795 -0.7337 0.7337 0.6795 -26.7669 137.0078)" width="7" height="29.5"/>
</g>
<g>
	<rect x="128.6" y="108.6" transform="matrix(0.4451 -0.8955 0.8955 0.4451 -34.585 185.0826)" width="7" height="23.6"/>
</g>
<g>
	<path d="M309.1,254.9l3.7-3.7c1.7,2,3.9,3,6.5,3c2.7,0,4.1-1.2,4.1-3.1c0-1.4-0.6-2.4-3-2.8l-2.5-0.3c-5.4-0.7-7.9-3.4-7.9-7.7
		c0-4.6,3.6-7.8,9.7-7.8c3.9,0,6.8,1.3,8.9,3.6l-3.7,3.8c-1.2-1.4-2.9-2.4-5.5-2.4c-2.5,0-3.7,1-3.7,2.5c0,1.8,0.9,2.4,3.1,2.8
		l2.5,0.4c5.3,0.8,7.8,3.2,7.8,7.6c0,4.9-3.6,8.4-10,8.4C314.3,259.1,311.3,257.4,309.1,254.9z"/>
	<path d="M352.3,258.7l-1.8-6.1h-8.6l-1.8,6.1h-5.7l8.5-25.7h6.9l8.4,25.7H352.3z M346.2,238h-0.2l-2.8,9.8h5.9L346.2,238z"/>
	<path d="M372.5,246.5l-2.5-5.2h-0.1v17.3h-5.3v-25.7h6.1l7,12.2l2.5,5.2h0.1v-17.3h5.3v25.7h-6.1L372.5,246.5z"/>
	<path d="M405.1,237.9v20.8h-5.6v-20.8h-7v-5H412v5H405.1z"/>
	<path d="M432.3,258.7l-1.8-6.1h-8.6l-1.8,6.1h-5.7l8.5-25.7h6.9l8.4,25.7H432.3z M426.2,238H426l-2.8,9.8h5.9L426.2,238z"/>
	<path d="M443.2,254.9l3.7-3.7c1.7,2,3.9,3,6.5,3c2.7,0,4.1-1.2,4.1-3.1c0-1.4-0.6-2.4-3-2.8l-2.5-0.3c-5.4-0.7-7.9-3.4-7.9-7.7
		c0-4.6,3.6-7.8,9.7-7.8c3.9,0,6.8,1.3,8.9,3.6l-3.7,3.8c-1.2-1.4-2.9-2.4-5.5-2.4c-2.5,0-3.7,1-3.7,2.5c0,1.8,0.9,2.4,3.1,2.8
		l2.5,0.4c5.3,0.8,7.8,3.2,7.8,7.6c0,4.9-3.6,8.4-10,8.4C448.5,259.1,445.4,257.4,443.2,254.9z"/>
</g>
<g>
	<path d="M0,258.7v-25.7h12.2c4.8,0,7.8,3.4,7.8,8.2s-3,8.2-7.8,8.2H5.6v9.3H0z M5.6,244.5h5.9c1.7,0,2.7-0.9,2.7-2.5v-1.6
		c0-1.7-1-2.5-2.7-2.5H5.6V244.5z"/>
	<path d="M29.1,258.7v-4.5h3.3v-16.8h-3.3v-4.5h12.2v4.5H38v16.8h3.3v4.5H29.1z"/>
	<path d="M51.9,258.7v-25.7h17.5v5H57.5v5.3h10.2v4.9H57.5v5.6h11.9v5H51.9z"/>
	<path d="M80.2,258.7v-25.7h5.6v20.8h9.8v5H80.2z"/>
	<path d="M105.6,258.7v-25.7h17.5v5h-11.9v5.3h10.2v4.9h-10.2v5.6h11.9v5H105.6z"/>
	<path d="M132.5,254.9l3.7-3.7c1.7,2,3.9,3,6.5,3c2.7,0,4.1-1.2,4.1-3.1c0-1.4-0.6-2.4-3-2.8l-2.5-0.3c-5.4-0.7-7.9-3.4-7.9-7.7
		c0-4.6,3.6-7.8,9.7-7.8c3.9,0,6.8,1.3,8.9,3.6l-3.7,3.8c-1.2-1.4-2.9-2.4-5.5-2.4c-2.5,0-3.7,1-3.7,2.5c0,1.8,0.9,2.4,3.1,2.8
		l2.5,0.4c5.3,0.8,7.8,3.2,7.8,7.6c0,4.9-3.6,8.4-10,8.4C137.8,259.1,134.7,257.4,132.5,254.9z"/>
</g>
</svg>
